<svg width="30" height="31" viewBox="0 0 30 31" fill="none" xmlns="http://www.w3.org/2000/svg">
<g clip-path="url(#clip0_2344_98)">
<path d="M24.1992 0.664062H5.80078C2.60156 0.664062 0 3.26562 0 6.46484V12.5937V24.875C0 28.0742 2.60156 30.6758 5.80078 30.6758H24.1992C27.3984 30.6758 30 28.0742 30 24.875V12.582V6.45312C29.9883 3.26562 27.3867 0.664062 24.1992 0.664062ZM25.8633 4.12109H26.5312V4.77734V9.20703L21.457 9.21875L21.4453 4.13281L25.8633 4.12109ZM10.7109 12.582C11.6719 11.2578 13.2305 10.3789 14.9883 10.3789C16.7461 10.3789 18.3047 11.2461 19.2656 12.582C19.8984 13.4492 20.2617 14.5156 20.2617 15.6641C20.2617 18.5703 17.8945 20.9492 14.9766 20.9492C12.0586 20.9492 9.71484 18.5703 9.71484 15.6641C9.71484 14.5156 10.0898 13.4492 10.7109 12.582ZM27.0703 24.8633C27.0703 26.4453 25.7812 27.7344 24.1992 27.7344H5.80078C4.21875 27.7344 2.92969 26.4453 2.92969 24.8633V12.582H7.40625C7.01953 13.5313 6.79688 14.5742 6.79688 15.6641C6.79688 20.1875 10.4766 23.8672 15 23.8672C19.5234 23.8672 23.2031 20.1875 23.2031 15.6641C23.2031 14.5742 22.9805 13.5313 22.5938 12.582H27.0703V24.8633Z" fill="black" stroke="black" stroke-width="3.125"/>
</g>
<defs>
<clipPath id="clip0_2344_98">
<rect width="30" height="30" fill="white" transform="translate(0 0.664062)"/>
</clipPath>
</defs>
</svg>
