<svg width="30" height="25" viewBox="0 0 30 25" fill="none" xmlns="http://www.w3.org/2000/svg">
<path d="M6.6198 7.81451H0.774414V24.3663H6.6198V7.81451Z" fill="black"/>
<path d="M3.57283 0C1.41742 0 0 1.23335 0 2.87091C0 4.47738 1.37056 5.74183 3.49083 5.74183H3.53769C5.73996 5.74183 7.11052 4.46702 7.09881 2.87091C7.05195 1.23335 5.72825 0 3.57283 0Z" fill="black"/>
<path d="M22.585 7.659C19.2348 7.659 17.1379 9.27583 16.7514 10.4159V7.81446H10.1797C10.2617 9.19291 10.1797 24.3663 10.1797 24.3663H16.7514V15.4219C16.7514 14.914 16.7279 14.4165 16.8919 14.0641C17.3371 13.0692 18.3093 12.0327 20.0548 12.0327C22.339 12.0327 23.3699 13.5667 23.3699 15.8053V24.3663H30.0001V15.1628C30.0001 10.0428 26.7436 7.659 22.585 7.659Z" fill="black"/>
</svg>
